<svg version="1.2" xmlns="http://www.w3.org/2000/svg" viewBox="0 0 248 252" width="248" height="252"><style>tspan{white-space:pre}.t0{font-size: 22px;fill: #2d333b;font-weight: 500;font-family: "Oswald-Medium", "Oswald"}.t1{font-size: 49px;fill: #ba9e7d;font-weight: 500;font-family: "Oswald-Medium", "Oswald"}.t2{font-size: 13px;fill: #2d333b;font-weight: 500;font-family: "Oswald-Medium", "Oswald"}.s3{fill:#2d333b}</style><text style="transform: matrix(1,0,0,1,3.834,90.005)" ><tspan x="0" y="0" class="t0" dx="0 2 2 2 2" >1957
</tspan></text><text style="transform: matrix(1,0,0,1,195.977,90.005)" ><tspan x="0" y="0" class="t0" dx="0 2 2 2 2" >2017
</tspan></text><text style="transform: matrix(1,0,0,1,-2.787,227.023)" ><tspan x="0" y="0" class="t1" dx="0 10 10 10 10 10 10" >BAKERY
</tspan></text><text style="transform: matrix(1,0,0,1,62.498,251.338)" ><tspan x="0" y="0" class="t2" dx="0 5 5 5 5 5 5 5 5 5 5 5" >FRESH BREAD
</tspan></text><path fill-rule="evenodd" class="s3" d="m200.4 124.1c2 1.9 2 5.1 0 7.1l-18.3 18.3c-2 1.9-5.1 1.9-7.1 0l-13.7-13.8l1.7 20.9q0 0.2 0 0.4c0 1.3-0.5 2.5-1.4 3.4c-0.6 0.6-1.4 1.1-2.4 1.2q0 0 0 0.1q-0.2 0-0.4 0q-0.1 0-0.1 0q-0.2 0-0.4 0c0 0-63.4 0-63.5 0q0 0 0 0q-0.2 0-0.4 0q0 0-0.1 0q-0.2 0-0.4 0q0-0.1 0-0.1c-1-0.1-1.8-0.6-2.4-1.2c-0.9-0.9-1.4-2.1-1.4-3.4q0-0.2 0-0.4l1.7-20.9l-13.7 13.8c-2 1.9-5.2 1.9-7.1 0l-18.3-18.3c-2-2-2-5.2 0-7.1l43.5-43.6l-0.6 8.5l1.4-17.6l-44.3-44.3c-2-2-2-5.1 0-7.1l18.3-18.3c1.9-1.9 5.1-1.9 7.1 0l39.5 39.6l-3.7 3.1l9-7.6c1-0.8 2.3-1.2 3.6-1.2c1.2 0 2.5 0.4 3.6 1.3l5.2 4.5l39.7-39.7c2-1.9 5.1-1.9 7.1 0l18.3 18.3c2 2 2 5.1 0 7.1l-44.3 44.3l-0.4-4.5l1-1l-1.1-1.1l1.6 20.4l-0.4-4.7zm-65-82.7l1.1 1l-1.1-1zm1.1 1l13.6 11.7c1.4 1.2 3.1 2.8 3.9 3.6q0.3 0.2 0.5 0.6q0.1 0.2 0.1 0.3q0.2 0.3 0.3 0.5l4.3 4.4l11.6-11.7l-20.4-20.5l-11.7 11.7l9.5 9.5zm18.4 16.7q0.1 0.1 0.1 0.2q0-0.1-0.1-0.2zm-46.7-9.8l6.2-6.3l-11.6-11.7l-20.5 20.5l11.7 11.6l4.3-4.3q0.2-0.4 0.4-0.7q0-0.3 0.2-0.6c0.2-0.3 0.4-0.6 0.6-0.9q0.4-0.4 0.8-0.9c0.6-0.6 1.4-1.3 2.1-1.9zm0 0l5.8-4.8l-5.8 4.8zm-11.1 22.2l0.3-4.6l-0.3 4.6zm0.3-4.6l0.2-2.1l-1.1 1.2zm63.7 66.5l0.2 2.3zm-1.6 23.7q0-0.1 0-0.1l-7.7-96c-0.1-0.4-0.3-0.8-0.6-1.1c-0.4-0.4-0.8-0.5-1.2-0.5h-46.9c-0.4 0-0.8 0.2-1.2 0.5c-0.3 0.3-0.5 0.7-0.6 1.1l-7.7 96q0 0 0 0.1q0 0.5 0.3 0.9q0.3 0.2 0.7 0.3q0 0 0 0q0.1 0 0.3 0h19.6v-26.6c0-2.9 2.3-5.3 5-5.3h14.7c2.7 0 5 2.4 5 5.3v26.6h19.1c0.4 0 0.7-0.1 0.9-0.3q0.3-0.4 0.3-0.9zm7.4-142.3l20.5 20.5l10.6-10.6c0.3-0.3 0.4-0.7 0.4-1.1c0-0.4-0.1-0.7-0.4-1l-18.3-18.4c-0.3-0.2-0.7-0.4-1.1-0.4c-0.4 0-0.8 0.2-1.1 0.4zm6.4 34.6l11.6-11.6l-20.5-20.5l-11.6 11.7zm-107.6-14.2l20.5-20.4l-10.6-10.6c-0.3-0.3-0.7-0.4-1.1-0.4c-0.4 0-0.7 0.1-1 0.4l-18.4 18.3c-0.3 0.3-0.4 0.7-0.4 1.1c0 0.4 0.1 0.8 0.4 1.1zm14.2 14.1l20.4-20.5l-11.6-11.6l-20.5 20.4zm77.8 40.1l1.7 21.5l11.5-11.5l-11.6-11.6zm-51.9-33.6h41.1l-19-16.3c-0.3-0.3-0.8-0.4-1.3-0.4c-0.6 0-1.1 0.1-1.4 0.4zm-23.4 43.6l11.5 11.5l1.7-21.6l-1.6-1.6zm3.9 37.1l-20.4-20.5l-10.6 10.6c-0.3 0.3-0.4 0.6-0.5 1q0 0.7 0.5 1.1l18.3 18.3c0.3 0.3 0.7 0.5 1.1 0.5c0.4 0 0.8-0.2 1.1-0.5zm7.2-20.9l-13.6-13.6l-11.6 11.6l20.4 20.5l3.6-3.6l1.1-13.6zm42.3 16.2c0-0.5-0.2-0.9-0.5-1.2c-0.3-0.3-0.6-0.4-1.1-0.4h-14.6c-0.4 0-0.8 0.1-1.1 0.4c-0.3 0.3-0.4 0.7-0.4 1.2v26.6h17.7zm-40.2 26.6q-0.2 0-0.3 0q0.1 0 0.3 0zm68.9-24.3l20.5-20.4l-11.6-11.7l-13.6 13.6l0.1 1.4l1.1 13.6zm33.9-6.4c0-0.4-0.1-0.8-0.4-1.1l-10.6-10.5l-20.5 20.4l10.6 10.6c0.3 0.3 0.7 0.4 1.1 0.4q0.6 0 1-0.4l18.4-18.3q0.4-0.5 0.4-1.1zm-39.5 34.1q0 0 0 0q0 0 0 0z" /></svg>