<svg version="1.2" xmlns="http://www.w3.org/2000/svg" viewBox="0 0 358 213" width="358" height="213"><style>tspan{white-space:pre}.s0{fill:#ba9e7d}.t1{font-size: 20px;fill: #2d333b;font-weight: 500;font-family: "Oswald-Medium", "Oswald"}.t2{font-size: 73px;fill: #2d333b;font-weight: 500;font-family: "Oswald-Medium", "Oswald"}</style><path class="s0" d="m129.9 125.5q-1.2 3.5-11.7 4.1c-10.6 0.5-22 0.7-33.8 2c-5.5 0.5-13.6 1.8-26.1-7.7c-12.5-9.5-31-20.7-55.4-79.7c-1.8-4.4-3.7-9.2-2.3-9.9c1.3-0.7 2 1 3.5 4.5c1.6 3.5 24.1 45.3 38.9 61.3c3.9 4.4 7.1 6.7 9.2 3.9c2.1-2.8 1.5-7.8-1.1-11.2c-2.6-3.5-20.2-26.1-18.9-71.9c0.4-7.3 4.6-20.6 7.4-20.5q1.1-0.2 0.3 3.1c-0.8 3.3-3.5 12.8-2.9 20.4c0.5 7.7 2.6 45.9 20.6 60.9c3 1.8 6.7 3.3 11.9-2c5.3-5.4 10.5-10.4 15.2-15.3c4.7-5 11.3-19 11.8-27.9c0.6-8.9 3.3-14.6 4.5-18.8c1.1-4.1 1.5-6.8 2.1-6.8c0.6 0 0.6 0.4 0.4 1.5c-0.1 1.1-1 9.2-1 14.1c-0.1 4.8 1 20.3-5.5 34c-6.5 13.6-21.9 21.7-27.4 31.2c-5.5 9.5-6.8 18.9 1.1 22.8c7.9 3.9 15 3.8 17.7 2.7c2.6-1 2.6-3.1 1-4.3q-1.5-1.3-6.8-5.9q-1.8-1.3-1-2.7q0.9-1.4 1.8-2.4q0.5-1.3 2.8 1c2.4 2.3 4.6 3.9 6.2 5c3.2 2.3 5.1 3.9 7 4.7c1.9 0.9 8.1 2 14 1.8c5.8-0.3 13.2-0.7 15.9-2.3c2.7-1.6 6.3-1.6 5.5 0.7q-0.8 2.3-4.9 9.6z" /><path class="s0" d="m222.9 115.9c-0.8-2.3 2.7-2.3 5.5-0.7c2.7 1.6 10 2 15.9 2.3c5.8 0.2 12.1-0.9 14-1.8c1.9-0.8 3.7-2.4 6.9-4.7c1.7-1.1 3.9-2.7 6.2-5q2.3-2.3 2.8-1q0.9 1 1.8 2.4q0.9 1.4-0.9 2.7q-5.3 4.6-6.8 5.9c-1.6 1.2-1.6 3.3 1 4.3c2.7 1.1 9.8 1.2 17.7-2.7c7.9-3.9 6.6-13.3 1.1-22.8c-5.6-9.5-20.9-17.6-27.4-31.2c-6.5-13.7-5.4-29.2-5.5-34c0-4.9-1-13-1.1-14.1c-0.1-1.1-0.1-1.5 0.5-1.5c0.5 0 0.9 2.7 2.1 6.8c1.1 4.2 3.9 9.9 4.5 18.8c0.5 8.9 7 22.9 11.7 27.9c4.8 4.9 10 9.9 15.2 15.3c5.3 5.3 9 3.8 12 2c17.9-15 20.1-53.2 20.6-60.9c0.6-7.6-2.2-17.1-2.9-20.4q-0.8-3.3 0.3-3.1c2.8-0.1 6.9 13.2 7.4 20.5c1.3 45.8-16.3 68.4-18.9 71.9c-2.6 3.4-3.3 8.4-1.2 11.2c2.2 2.8 5.3 0.5 9.3-3.9c14.8-16 37.3-57.8 38.8-61.3c1.6-3.5 2.3-5.2 3.6-4.5c1.4 0.7-0.5 5.5-2.3 9.9c-24.4 59-42.9 70.2-55.4 79.7c-12.5 9.5-20.7 8.2-26.1 7.7c-11.8-1.3-23.3-1.5-33.8-2q-10.5-0.6-11.8-4.1q-4-7.3-4.8-9.6z" /><text style="transform: matrix(1,0,0,1,155.32,129.747)" ><tspan x="0" y="0" class="t1" dx="0 2 2 2 2" >1987
</tspan></text><text style="transform: matrix(1,0,0,1,48.422,212.35)" ><tspan x="-20" y="0" class="t2" dx="" >DAKOTA</tspan></text></svg>