<svg version="1.2" xmlns="http://www.w3.org/2000/svg" viewBox="0 0 339 186" width="339" height="186"><style>tspan{white-space:pre}.t0{font-size: 44px;fill: #ba9e7d;font-weight: 500;font-family: "Oswald-Medium", "Oswald"}.t1{font-size: 16px;fill: #2d333b;font-weight: 500;font-family: "Oswald-Medium", "Oswald"}.s2{fill:#ba9e7d}.s3{fill:#2d333b}</style><text style="transform: matrix(1,0,0,1,48.834,67.271)" ><tspan x="0" y="0" class="t0" dx="0 18 18 18 18 18 18" >HUDSON
</tspan></text><text style="transform: matrix(1,0,0,1,146.663,168.566)" ><tspan x="0" y="0" class="t1" dx="0 2 2 2 2 2 2 2 2 2 2" >SINCE 1975
</tspan></text><text style="transform: matrix(1,0,0,1,295.032,168.566)" ><tspan x="0" y="0" class="t1" dx="0 2 2" >HD
</tspan></text><text style="transform: matrix(1,0,0,1,146.663,122.979)" ><tspan x="0" y="0" class="t1" dx="0 3 3 3 3 3 3 3 3 3 3 3 3 3 3" >MADE WITH LOVE
</tspan></text><path fill-rule="evenodd" class="s2" d="m80.9 141.3c-0.4 5.6-2.6 10.6-6 14.6l4 4l-2.4 2.4l-4-4.1c-3.9 3.5-9 5.7-14.5 6v8.7h-3.4v-8.7c-5.5-0.3-10.6-2.5-14.5-6l-4 4.1l-2.4-2.4l4.1-4c-3.5-4-5.7-9-6.1-14.6h-8.6v-3.3h8.6c0.4-5.5 2.6-10.6 6-14.5l-4-4.1l2.4-2.3l4 4c3.9-3.4 9-5.6 14.5-6v-8.7h3.4v8.7c5.5 0.4 10.6 2.6 14.5 6l4-4l2.4 2.3l-4 4.1c3.4 3.9 5.6 9 6 14.5h8.6v3.3zm-8.3-15.5l-8.6 8.6c0.7 1.1 1.2 2.3 1.4 3.6h12.2c-0.4-4.6-2.2-8.8-5-12.2zm-10.3 13.9c0-3.3-2.7-5.9-5.9-5.9c-3.3 0-5.9 2.6-5.9 5.9c0 3.2 2.6 5.9 5.9 5.9c3.2 0 5.9-2.7 5.9-5.9zm-4.3-21.3v12.2c1.3 0.2 2.6 0.7 3.6 1.5l8.6-8.6c-3.3-2.9-7.5-4.7-12.2-5.1zm-15.5 5.1l8.6 8.6c1.1-0.8 2.3-1.3 3.6-1.5v-12.2c-4.6 0.4-8.8 2.2-12.2 5.1zm-7.4 14.5h12.2c0.2-1.3 0.7-2.5 1.5-3.6l-8.6-8.6c-2.9 3.4-4.7 7.6-5.1 12.2zm5.1 15.5l8.6-8.6c-0.8-1-1.3-2.2-1.5-3.6h-12.2c0.4 4.7 2.2 8.9 5.1 12.2zm14.5 7.4v-12.2c-1.3-0.2-2.5-0.7-3.6-1.4l-8.6 8.6c3.4 2.8 7.6 4.6 12.2 5zm15.5-5l-8.6-8.6c-1 0.7-2.3 1.2-3.6 1.4v12.2c4.7-0.4 8.9-2.2 12.2-5zm7.4-14.6h-12.2c-0.2 1.4-0.7 2.6-1.4 3.6l8.6 8.6c2.8-3.3 4.6-7.5 5-12.2z" /><path fill-rule="evenodd" class="s3" d="m339 0.5v185.4h-338.6v-185.4zm-334.4 4.1v87.9h330.3v-87.9zm109.4 177.2h154.7v-40.9h-154.7zm221-45.1v-40.2h-221v40.2zm-330.4 45.1h105.3v-85.3h-105.3zm330.4 0v-41h-62.2v41z" /></svg>