<svg version="1.2" xmlns="http://www.w3.org/2000/svg" viewBox="0 0 218 177" width="218" height="177"><style>tspan{white-space:pre}.t0{font-size: 14px;fill: #000000;font-weight: 700;font-family: "Montserrat-Bold", "Montserrat"}.t1{font-size: 25px;fill: #000000;font-weight: 700;font-family: "Montserrat-Bold", "Montserrat"}.s2{fill:#231f20}.s3{fill:#000000}</style><text style="transform: matrix(1,0,0,1,77.414,145.583)" ><tspan x="0" y="0" class="t0">DESIGN
</tspan></text><text style="transform: matrix(1,0,0,1,1.04,97.59)" ><tspan x="0" y="0" class="t1">JOHN WILLIAMS
</tspan></text><path fill-rule="evenodd" class="s2" d="m183.6 49.1v19h-155.2v-19c0.1-3.2 2-6.5 4.8-8.2l68.1-39.3c1.4-0.9 3.1-1.2 4.7-1.2c1.7 0 3.4 0.3 4.8 1.2l68.1 39.3c2.8 1.7 4.7 5 4.7 8.2zm-3.5 0c0-1.6-1.5-4.4-3-5.1l-68.1-39.3c-0.7-0.4-1.8-0.7-3-0.7c-1.1 0-2.3 0.3-3 0.7l-68 39.3c-1.5 0.7-3.1 3.5-3 5.1v15.5h148.1zm-151.7 60.7h155.2v17.9c0 3.2-1.9 6.5-4.7 8.2l-68.1 39.3c-1.4 0.8-3.1 1.2-4.8 1.2c-1.6 0-3.3-0.4-4.7-1.2l-68.1-39.3c-2.8-1.7-4.7-5-4.8-8.2zm3.6 17.8c-0.1 1.6 1.5 4.4 3 5.1l68 39.3c0.7 0.4 1.9 0.7 3 0.7c1.2 0 2.3-0.3 3-0.7l68.1-39.3c1.5-0.7 3-3.5 3-5.1v-14.3h-148.1z" /><path fill-rule="evenodd" class="s2" d="m119 47c-0.5 0.3-1.4 0.2-2.4-0.1c-2 3.4-6 5.7-10.6 5.7c-4.6 0-8.5-2.3-10.6-5.7c-1 0.3-1.9 0.4-2.4 0.1c-1.2-0.6-0.1-4 1-5.8c0.3-0.5 0.5-0.9 0.7-1.1c0.3-0.1 0.5-0.3 0.9 0.4q0.5 0.8 1.1 1.2c1.6 1.4 3.8 1.3 3.3 2.2c-0.3 0.6-1.1 1.3-2.1 1.9c1.4 2.2 3.9 3.8 6.9 4.1v-9.9h-1.9v-2h1.9v-2h-5.6l1.3-2.3h4.3v-2.4c-1.5-0.5-2.6-1.9-2.6-3.6c0-2.1 1.7-3.8 3.8-3.8c2.1 0 3.8 1.7 3.8 3.8c0 1.7-1 3.1-2.5 3.6v2.4h4.2l1.3 2.3h-5.5v2h1.9v2h-1.9v9.9c2.9-0.3 5.5-1.9 6.9-4.1c-1-0.6-1.8-1.3-2.1-1.9c-0.5-0.9 1.7-0.8 3.3-2.2q0.6-0.4 1-1.2c0.5-0.7 0.7-0.5 0.9-0.4c0.2 0.2 0.5 0.6 0.8 1.1c1 1.8 2.1 5.2 0.9 5.8zm-13-18c0.7 0 1.3-0.6 1.3-1.3c0-0.7-0.6-1.2-1.3-1.2c-0.7 0-1.2 0.5-1.2 1.2c0 0.7 0.5 1.3 1.2 1.3z" /><path class="s3" d="m123.8 128.3h-35.6v-1.8h35.6z" /></svg>