<svg version="1.2" xmlns="http://www.w3.org/2000/svg" viewBox="0 0 218 172" width="218" height="172"><style>tspan{white-space:pre}.t0{font-size: 14px;fill: #000000;font-weight: 700;font-family: "Montserrat-Bold", "Montserrat"}.t1{font-size: 20px;fill: #000000;font-weight: 700;font-family: "Montserrat-Bold", "Montserrat"}.s2{fill:#231f20}</style><text style="transform: matrix(1,0,0,1,81.127,136.814)" ><tspan x="0" y="0" class="t0">DESIGN
</tspan></text><text style="transform: matrix(1,0,0,1,54.313,93.219)" ><tspan x="0" y="0" class="t1">JOHN DOE
</tspan></text><path fill-rule="evenodd" class="s2" d="m184 124.2v0.2c-0.1 3.2-2 6.4-4.7 8l-66.4 38.3c-1.4 0.8-3 1.2-4.6 1.2c-1.6 0-3.3-0.4-4.7-1.2l-66.3-38.3c-2.8-1.6-4.6-4.8-4.7-8v-13.9h-13.2v-18.8h-18.9l11.4-21.1l-11.4-20.3h32.1v-2.6c0.1-3.2 1.9-6.4 4.7-8l66.3-38.4c1.4-0.8 3.1-1.1 4.7-1.1c1.6 0 3.2 0.3 4.6 1.1l66.4 38.4c2.7 1.6 4.6 4.8 4.7 8v15.1h13.2v20h20.3l-11.4 21.1l11.5 20.3zm13.2-38.1v24.4h-13.2v10.5h28.1l-9.7-17l9.7-17.9zm-161.1-38.4v15.1h144.4v-15.1c0.1-1.6-1.5-4.3-2.9-5l-66.4-38.3c-0.7-0.4-1.8-0.7-2.9-0.7c-1.1 0-2.2 0.3-2.9 0.7l-66.4 38.3c-1.4 0.7-3 3.4-2.9 5zm-16.7 40.7v-25.6h13.2v-9.3h-26.6l9.6 17l-9.6 17.9zm174.3 18.6v-40.8h-170.8v40.8zm-13.3 3.5h-144.4v13.9c0 1.6 1.5 4.3 2.9 5l66.4 38.3c0.7 0.4 1.8 0.7 2.9 0.7c1.1 0 2.3-0.3 2.9-0.7l66.4-38.3c1.4-0.7 3-3.4 2.9-5z" /><path fill-rule="evenodd" class="s2" d="m121.7 44.8c-0.5 0.2-1.4 0.1-2.3-0.1c-2 3.3-5.9 5.5-10.4 5.5c-4.4 0-8.3-2.2-10.3-5.5c-1 0.2-1.8 0.3-2.3 0.1c-1.2-0.6-0.1-3.9 0.9-5.7c0.2-0.5 0.5-0.8 0.7-1c0.2-0.2 0.4-0.4 0.9 0.3q0.4 0.8 1 1.3c1.6 1.3 3.7 1.1 3.2 2.1c-0.3 0.6-1.1 1.2-2 1.8c1.3 2.1 3.8 3.7 6.7 4v-9.6h-1.8v-2h1.8v-2h-5.4l1.2-2.2h4.2v-2.3c-1.4-0.5-2.5-1.9-2.5-3.5c0-2.1 1.7-3.7 3.7-3.7c2.1 0 3.8 1.6 3.8 3.7c0 1.6-1.1 3-2.6 3.5v2.3h4.2l1.2 2.2h-5.4v2h1.9v2h-1.9v9.6c2.9-0.3 5.4-1.9 6.8-4c-1-0.6-1.8-1.2-2.1-1.8c-0.4-1 1.7-0.8 3.3-2.2q0.6-0.4 1-1.2c0.4-0.7 0.6-0.5 0.8-0.3c0.2 0.2 0.5 0.5 0.8 1c1 1.8 2 5.1 0.9 5.7zm-12.7-17.6c0.7 0 1.3-0.5 1.3-1.2c0-0.7-0.6-1.2-1.3-1.2c-0.7 0-1.2 0.5-1.2 1.2c0 0.7 0.5 1.2 1.2 1.2z" /></svg>