<svg version="1.2" xmlns="http://www.w3.org/2000/svg" viewBox="0 0 375 812" width="375" height="812"><defs><clipPath clipPathUnits="userSpaceOnUse" id="cp1"><path d="m0 0h375v812h-375z"/></clipPath></defs><style>tspan{white-space:pre}.A{fill:#f40051}.B{font-size: 20px;line-height: 54px;fill: #ffffff;font-weight: 800;font-family: "Gilroy"}.C{fill:#f2b300}.D{fill:#7620ff}.E{fill:#4cd5c5}.F{fill:#fff}.G{font-size: 20px;line-height: 23px;fill: #ffffff;font-weight: 500;font-family: "Poppins-Medium", "Poppins"}.H{font-size: 15px;line-height: 23px;fill: #0b093b;font-weight: 500;font-family: "Poppins-Medium", "Poppins"}.I{font-size: 15px;line-height: 23px;fill: #ffffff;font-weight: 500;font-family: "Poppins-Medium", "Poppins"}</style><g clip-path="url(#cp1)"><rect class="A" x="26" y="62" width="13" height="8" rx="4"></rect><text style="transform:matrix(1,0,0,1,63,57)" ><tspan x="0" y="0" class="B">fanatic
</tspan></text><rect class="C" x="33" y="30" width="20" height="8" rx="4"></rect><rect class="D" x="33" y="46" width="20" height="8" rx="4"></rect><rect class="E" x="26" y="38" width="8" height="8" rx="4"></rect><path class="F" d="m343 39.3l2.2 2.2l-21.2 21.2l-2.2-2.2z"/><path class="F" d="m345.2 60.5l-2.2 2.2l-21.2-21.2l2.2-2.2z"/><text style="transform:matrix(1,0,0,1,71,165)" ><tspan x="0" y="0" class="G">Home
</tspan></text><text style="transform:matrix(1,0,0,1,71,249)" ><tspan x="0" y="0" class="G">Services
</tspan></text><text style="transform:matrix(1,0,0,1,71,332)" ><tspan x="0" y="0" class="G">Projects
</tspan></text><text style="transform:matrix(1,0,0,1,71,416)" ><tspan x="0" y="0" class="G">Blog
</tspan></text><text style="transform:matrix(1,0,0,1,71,499)" ><tspan x="0" y="0" class="G">Pricing
</tspan></text><text style="transform:matrix(1,0,0,1,71,583)" ><tspan x="0" y="0" class="G">Contact
</tspan></text><rect class="F" x="187.8" y="729.9" width="136.2" height="38.4" rx="19.2"></rect><text style="transform:matrix(1,0,0,1,212.262,753.869)" ><tspan x="0" y="0" class="H">Get Started
</tspan></text><text style="transform:matrix(1,0,0,1,71.312,753.869)" ><tspan x="0" y="0" class="I">Log In
</tspan></text></g></svg>