<svg version="1.2" xmlns="http://www.w3.org/2000/svg" viewBox="0 0 111 111" width="111" height="111"><style>.s0{fill:#7620FF}.s1{fill:#0B093B}</style><path class="s0" d="m97.4 95.3h-0.1h-3.1h-3.8v-3.8c0-5.2-4.3-9.4-9.5-9.5h-50.6c-5.2 0.1-9.4 4.3-9.4 9.5l-0.1 3.8h-3.7h-3.2c-5.2 0-9.5-4.3-9.5-9.5v-28.3c0-5.2 4.3-9.4 9.5-9.4h83.4c5.3 0 9.5 4.2 9.5 9.4v28.3c0 5.2-4.2 9.5-9.4 9.5z" /><path fill-rule="evenodd" class="s1" d="m110.6 57.5v28.3c0 7.4-5.9 13.3-13.3 13.3h-3.2c-0.8 6.6-6.4 11.7-13.2 11.7h-50.6c-6.8 0-12.3-5.1-13.1-11.7h-3.3c-7.3 0-13.3-5.9-13.3-13.3v-28.3c0-7.3 6-13.2 13.3-13.2h9.8v-30.2c0-7.4 5.9-13.3 13.3-13.3h37.3c7.3 0 13.2 5.9 13.3 13.3v30.2h9.7c7.4 0 13.3 5.9 13.3 13.2zm-79.3-13.2h48.7v-30.2c0-3.1-2.6-5.7-5.7-5.7h-37.3c-3.1 0-5.7 2.6-5.7 5.7zm55 54.8q0.3-0.7 0.3-1.6c0 0 0-6 0-6c0-3.1-2.6-5.7-5.7-5.7h-50.6c-3.1 0-5.6 2.6-5.7 5.7c0 0 0 6 0 6c0 0.6 0.2 1.1 0.3 1.6c0.7 2.4 2.9 4.1 5.4 4.1h50.6c2.6 0 4.7-1.7 5.4-4.1zm16.7-41.5c0-3.2-2.5-5.7-5.7-5.7h-83.4c-3.1 0-5.7 2.5-5.7 5.7v28.2c0 3.1 2.6 5.7 5.7 5.7h3.2c0-7.3 5.9-13.2 13.2-13.2h50.6c7.3 0 13.3 5.9 13.3 13.2h3.1c3.2 0 5.7-2.6 5.7-5.7z" /></svg>