<svg version="1.2" xmlns="http://www.w3.org/2000/svg" viewBox="0 0 99 122" width="99" height="122"><style>.s0{fill:#F2B300}.s1{fill:#0B093B}</style><path class="s0" d="m68.2 34.4h-55c-5.2-0.1-9.5-4.3-9.5-9.5v-10.9c0-5.3 4.3-9.5 9.5-9.5h55c5.2 0 9.5 4.2 9.5 9.5v10.9c0 5.2-4.3 9.4-9.5 9.5z" /><path fill-rule="evenodd" class="s1" d="m98.5 26.1c-0.2 6.9-4.8 13.4-11.1 16.2l-36.6 15.4c-3.2 1.2-6.6 6.3-6.4 9.7v4.1c5.8 1.5 10 6.7 10 12.9v23.7c0 7.3-5.9 13.2-13.2 13.3h-1c-7.3-0.1-13.2-6-13.3-13.3v-23.7c0.1-6.2 4.2-11.3 9.9-12.8v-4.2c0.2-7.1 4.6-13.8 11.1-16.7l36.6-15.4c3.2-1.2 6.6-6.2 6.4-9.2c0-2.9-2.4-5.2-4.9-5.2h-4.5v4c0 7.3-6 13.2-13.3 13.2h-55c-7.3 0-13.3-5.9-13.3-13.2v-10.9c0-7.4 6-13.3 13.3-13.3h55c7.1 0 12.9 5.6 13.2 12.6c1.4 0 2.9 0 4.6 0c7 0.1 12.4 5.9 12.5 12.8zm-24.6-1.2v-10.9c0-3.1-2.6-5.7-5.7-5.7h-55c-3.1 0-5.7 2.6-5.7 5.7v10.9c0 3.1 2.6 5.6 5.7 5.7h55c3.1-0.1 5.7-2.6 5.7-5.7zm-32.7 53.8h-1c-3.1 0-5.7 2.6-5.7 5.7v23.7c0 3.1 2.6 5.7 5.7 5.7h1c3.1 0 5.7-2.6 5.7-5.7v-23.7c0-3.1-2.6-5.7-5.7-5.7z" /></svg>