<svg version="1.2" xmlns="http://www.w3.org/2000/svg" viewBox="0 0 111 111" width="111" height="111"><style>.s0{fill:#4CD5C5}.s1{fill:#0B093B}</style><path class="s0" d="m96.8 107h-83.4c-5.2 0-9.5-4.3-9.5-9.5v-56.3c0-5.2 4.3-9.4 9.5-9.4h83.4c5.3 0 9.5 4.2 9.5 9.5v56.2c0 5.2-4.2 9.5-9.5 9.5z" /><path fill-rule="evenodd" class="s1" d="m110.1 14.1v83.4c0 7.4-5.9 13.3-13.3 13.3h-83.4c-7.3 0-13.3-5.9-13.3-13.3v-83.4c0-7.4 6-13.3 13.3-13.3h83.4c7.4 0 13.3 5.9 13.3 13.3zm-7.6 27.2c0-3.1-2.6-5.7-5.7-5.7h-83.4c-3.1 0-5.7 2.5-5.7 5.6v56.3c0 3.1 2.6 5.7 5.7 5.7h83.4c3.1 0 5.7-2.6 5.7-5.7zm0-27.2c0-3.1-2.6-5.6-5.7-5.7h-83.4c-3.1 0.1-5.7 2.6-5.7 5.7v15.2c1.7-0.8 3.6-1.3 5.7-1.3h83.4c2.1 0 4 0.5 5.7 1.3z" /><path fill-rule="evenodd" class="s1" d="m80.6 18.2c0 4.7-3.8 8.5-8.5 8.5c-4.7 0-8.5-3.8-8.5-8.5c0-4.7 3.8-8.5 8.5-8.6c4.7 0.1 8.5 3.9 8.5 8.6zm-4.9 0c0-2-1.6-3.6-3.6-3.7c-2 0.1-3.6 1.7-3.6 3.7c0 2 1.6 3.6 3.6 3.6c2 0 3.6-1.6 3.6-3.6z" /><path fill-rule="evenodd" class="s1" d="m99.4 18.2c0 4.7-3.8 8.5-8.5 8.5c-4.7 0-8.5-3.8-8.5-8.5c0-4.7 3.8-8.5 8.5-8.6c4.7 0.1 8.5 3.9 8.5 8.6zm-4.9 0c0-2-1.6-3.6-3.6-3.7c-2 0.1-3.6 1.7-3.6 3.7c0 2 1.6 3.6 3.6 3.6c2 0 3.6-1.6 3.6-3.6z" /></svg>