<svg version="1.2" xmlns="http://www.w3.org/2000/svg" viewBox="0 0 121 91" width="121" height="91"><style>.s0{fill:#F40051}.s1{fill:#0B093B}</style><path class="s0" d="m107.1 66.9h-93.9c-5.2 0-9.5-4.2-9.5-9.4v-44.3c0-5.2 4.3-9.5 9.5-9.5h93.9c5.2 0 9.5 4.3 9.5 9.5v44.3c0 5.2-4.3 9.4-9.5 9.4z" /><path fill-rule="evenodd" class="s1" d="m120.4 13.2v44.3c0 7.3-6 13.2-13.3 13.2h-37.5v12h10.9c1 0 1.9 0.9 1.9 1.9v3.8c0 1.1-0.9 1.9-1.9 1.9h-40.7c-1 0-1.9-0.8-1.9-1.9v-3.8c0-1 0.9-1.9 1.9-1.9h10.9v-12h-37.5c-7.3 0-13.3-5.9-13.3-13.2v-44.3c0-7.3 6-13.3 13.3-13.3h93.9c7.3 0 13.3 6 13.3 13.3zm-58.4 57.5h-3.7v12h3.7zm50.8-57.5c0-3.1-2.6-5.7-5.7-5.7h-93.9c-3.1 0-5.7 2.6-5.7 5.7v44.3c0 3.1 2.6 5.7 5.7 5.7h93.9c3.1 0 5.7-2.6 5.7-5.7z" /></svg>