<svg version="1.2" xmlns="http://www.w3.org/2000/svg" viewBox="0 0 259 233" width="320" height="233"><style>tspan{white-space:pre}.t0{font-size: 67px;fill: #2d333b;font-weight: 500;font-family: "Oswald-Medium", "Oswald"}.t1{font-size: 41px;fill: #ba9e7d;font-weight: 500;font-family: "Oswald-Medium", "Oswald"}.s2{fill:#2d333b}</style><text style="transform: matrix(1,0,0,1,-1.193,183.284)" ><tspan x="-16.17" y="0" class="t0" dx="0" >VINTAGE</tspan></text><text style="transform: matrix(1,0,0,1,45.459,232.045)" ><tspan x="19.226" y="0" class="t1" dx="0" >STYLE</tspan></text><path fill-rule="evenodd" class="s2" d="m258.4 17.9c0 2.3-1.9 4.4-4.8 5.7q-6.9 4-7.1 10.9q0 0 0 0q-1.2 20.7-7.1 34.3l-1.1 2c-6.1 13.4-22.6 23-41.9 23c-13.4 0-25.5-4.6-33.6-11.9c-5.1-3-17.5-13.9-21.1-38.5c-1.1-8.3-5.7-14.5-11.3-15q-0.2 0-0.3 0q-0.1 0-0.3 0q-0.1 0-0.2 0q-0.2 0-0.3 0c-5.6 0.5-10.2 6.7-11.3 15c-3.6 24.6-16 35.5-21.1 38.5c-8.2 7.3-20.2 11.9-33.6 11.9c-19.4 0-35.8-9.6-41.9-23l-1.2-2q-5.8-13.6-7-34.3q0 0 0 0q-0.3-6.9-7.1-10.9c-3-1.3-4.9-3.4-4.9-5.7c0-1.7 1.2-3.4 3.1-4.6c0.2-0.3 9.7-11.1 40.2-10.5q0.3 0 0.5 0c6.5-1.4 13.6-2.1 21.2-2.1c15.7 0 29.8 3.2 39.4 8.3l0.2 0.1q11.4 2 24 2.3q12.7-0.3 24-2.3l0.3-0.1c9.6-5.1 23.7-8.3 39.4-8.3c7.5 0 14.7 0.7 21.2 2.1q0.2 0 0.5 0c30.5-0.6 40 10.2 40.2 10.5c1.9 1.2 3 2.9 3 4.6zm-146.2 9.8c0-12.3-20.6-22.3-46-22.3c-22.6 0-41.3 7.8-45.3 18.2h-0.1q0 0-1.1 3.1q-0.5 23.5 6.3 40l1 1.7c5.3 12.1 19.7 20.7 36.7 20.7c11.7 0 22.2-4.1 29.3-10.7c5.3-3.3 19.5-16.4 19.3-48.3c0.1-0.6-0.1-1.8-0.1-2.4zm127.8-1q-1.2-3.1-1.2-3.1c-4-10.4-22.7-18.2-45.3-18.2c-25.4 0-46 10-46 22.3c0 0.6-0.3 1.8-0.2 2.4c-0.2 31.9 14.1 45 19.4 48.3c7.1 6.6 17.6 10.7 29.3 10.7c16.9 0 31.3-8.6 36.6-20.7l1.1-1.7q6.8-16.5 6.3-40z" /></svg>